<svg xmlns="http://www.w3.org/2000/svg" width="42" height="51.61" viewBox="0 0 42 51.61">
  <path id="shield_person_24dp_E8EAED_FILL0_wght700_GRAD0_opsz24" d="M147-886.288a8.55,8.55,0,0,1-6.258-2.492,8.4,8.4,0,0,1-2.521-6.229,8.5,8.5,0,0,1,2.521-6.258A8.5,8.5,0,0,1,147-903.788a8.5,8.5,0,0,1,6.258,2.521,8.5,8.5,0,0,1,2.521,6.258,8.4,8.4,0,0,1-2.521,6.229A8.55,8.55,0,0,1,147-886.288Zm0-5.636a2.982,2.982,0,0,0,2.195-.89,2.982,2.982,0,0,0,.89-2.195,3.082,3.082,0,0,0-.89-2.225,2.933,2.933,0,0,0-2.195-.919,2.933,2.933,0,0,0-2.195.919,3.082,3.082,0,0,0-.89,2.225,2.982,2.982,0,0,0,.89,2.195A2.982,2.982,0,0,0,147-891.924Zm0,28.534a26.165,26.165,0,0,1-15.061-10.221A28.978,28.978,0,0,1,126-891.331V-907.2l21-7.8,21,7.8v15.866a28.978,28.978,0,0,1-5.939,17.719A26.165,26.165,0,0,1,147-863.39ZM147-889.076Zm0-17.975-13.525,5.067v10.639a20.51,20.51,0,0,0,.826,5.838,24.014,24.014,0,0,0,2.258,5.269,26.875,26.875,0,0,1,5.019-1.75,22.988,22.988,0,0,1,5.4-.623,23.662,23.662,0,0,1,5.452.623,25.06,25.06,0,0,1,5.013,1.75,22.335,22.335,0,0,0,2.284-5.28,21.006,21.006,0,0,0,.8-5.828v-10.639Zm0,30.076a19.131,19.131,0,0,0-3.678.326,16.227,16.227,0,0,0-3.2.979,24.134,24.134,0,0,0,3.263,2.64A19.881,19.881,0,0,0,147-871.1a19.881,19.881,0,0,0,3.619-1.928,24.133,24.133,0,0,0,3.263-2.64,16.227,16.227,0,0,0-3.2-.979A19.131,19.131,0,0,0,147-876.975Z" transform="translate(-126 915)" fill="#caca34"/>
</svg>
