<svg xmlns="http://www.w3.org/2000/svg" width="52.458" height="52.197" viewBox="0 0 52.458 52.197">
  <path id="settings_alert_24dp_E8EAED_FILL0_wght400_GRAD0_opsz24" d="M104.229-843.462a2.525,2.525,0,0,0,1.86-.75,2.525,2.525,0,0,0,.75-1.859,2.525,2.525,0,0,0-.75-1.859,2.525,2.525,0,0,0-1.86-.75,2.525,2.525,0,0,0-1.86.75,2.525,2.525,0,0,0-.75,1.859,2.525,2.525,0,0,0,.75,1.859A2.525,2.525,0,0,0,104.229-843.462Zm-2.61-7.83h5.22v-13.049h-5.22ZM97.052-827.8l-1.044-8.352a9.912,9.912,0,0,1-1.6-.783q-.75-.457-1.468-.979l-7.764,3.262L78-847.051l6.72-5.089a6.231,6.231,0,0,1-.065-.881v-1.762a6.228,6.228,0,0,1,.065-.881L78-860.752l7.177-12.4,7.764,3.262a17.767,17.767,0,0,1,1.5-.979,13.155,13.155,0,0,1,1.566-.783L97.052-880h14.354l1.044,8.351a9.912,9.912,0,0,1,1.6.783q.75.457,1.468.979l7.764-3.262,7.177,12.4-6.72,5.089a6.228,6.228,0,0,1,.065.881v1.762a3.2,3.2,0,0,1-.13.881l6.72,5.089-7.177,12.4-7.7-3.262a17.8,17.8,0,0,1-1.5.979,13.154,13.154,0,0,1-1.566.783l-1.044,8.352Zm4.567-5.22h5.154l.913-6.916a14.627,14.627,0,0,0,3.752-1.533,15.6,15.6,0,0,0,3.164-2.447l6.459,2.675,2.545-4.437L118-849.922a9.211,9.211,0,0,0,.457-1.925,16.042,16.042,0,0,0,.13-2.055,16.042,16.042,0,0,0-.13-2.055,9.209,9.209,0,0,0-.457-1.925l5.611-4.241-2.545-4.437-6.459,2.74a14.5,14.5,0,0,0-3.164-2.512,14.636,14.636,0,0,0-3.752-1.533l-.848-6.916h-5.154l-.913,6.916a14.636,14.636,0,0,0-3.752,1.533,15.6,15.6,0,0,0-3.164,2.447L87.4-866.559l-2.545,4.437,5.611,4.176a10.616,10.616,0,0,0-.457,1.957,15.816,15.816,0,0,0-.131,2.088,15.293,15.293,0,0,0,.131,2.023,10.62,10.62,0,0,0,.457,1.957l-5.611,4.241,2.545,4.437,6.459-2.74a14.492,14.492,0,0,0,3.164,2.512,14.628,14.628,0,0,0,3.752,1.533ZM104.229-853.9Z" transform="translate(-78 880)" fill="#67cbab"/>
</svg>
