<svg xmlns="http://www.w3.org/2000/svg" width="68.035" height="56.203" viewBox="0 0 68.035 56.203">
  <path id="hotel_class_24dp_E8EAED_FILL0_wght400_GRAD0_opsz24" d="M67.92-843.025l11.241-9.614,8.874.74L75.02-840.584,78.865-823.8l-7.543-4.585Zm-6.951-21.594-3.106-7.247,3.4-8.135,6.8,16.047ZM40.263-836.147l9.318-5.62,9.318,5.694-2.44-10.649,8.209-7.1-10.8-.961L49.58-864.84l-4.289,9.983-10.8.961,8.209,7.173ZM31.315-823.8l4.807-20.78L20-858.554,41.3-860.4,49.58-880l8.283,19.6,21.3,1.849L63.04-844.578l4.807,20.78L49.58-834.816ZM49.58-848.941Z" transform="translate(-20 880)" fill="#3456ca"/>
</svg>
