<svg xmlns="http://www.w3.org/2000/svg" width="25.59" height="19.499" viewBox="0 0 25.59 19.499">
  <path id="Discord_Icon" data-name="Discord Icon" d="M21.7,1.784a21.442,21.442,0,0,1,3.784,14.56.083.083,0,0,1-.034.059,21.153,21.153,0,0,1-6.4,3.229.082.082,0,0,1-.09-.03,17.072,17.072,0,0,1-1.306-2.125.082.082,0,0,1,.044-.114,13.075,13.075,0,0,0,2-.95.082.082,0,0,0,.007-.136c-.135-.1-.269-.206-.4-.312a.078.078,0,0,0-.083-.01,15.139,15.139,0,0,1-12.861,0,.08.08,0,0,0-.083.011c-.128.106-.262.21-.4.311a.082.082,0,0,0,.008.136,13.953,13.953,0,0,0,2,.951.081.081,0,0,1,.044.113A15.193,15.193,0,0,1,6.622,19.6a.083.083,0,0,1-.09.029A21.222,21.222,0,0,1,.142,16.4a.087.087,0,0,1-.033-.06,21.584,21.584,0,0,1,3.78-14.56.075.075,0,0,1,.034-.029A21.056,21.056,0,0,1,9.132.139a.082.082,0,0,1,.084.04A13.538,13.538,0,0,1,9.875,1.51a19.493,19.493,0,0,1,5.85,0A14.746,14.746,0,0,1,16.374.179a.079.079,0,0,1,.084-.04,21.1,21.1,0,0,1,5.209,1.615.064.064,0,0,1,.033.03ZM10.854,10.86a2.432,2.432,0,0,0-2.3-2.579,2.446,2.446,0,0,0-2.3,2.579,2.459,2.459,0,0,0,2.3,2.578A2.446,2.446,0,0,0,10.854,10.86Zm8.5,0a2.432,2.432,0,0,0-2.3-2.579,2.446,2.446,0,0,0-2.3,2.579,2.459,2.459,0,0,0,2.3,2.578A2.439,2.439,0,0,0,19.357,10.86Z" transform="translate(-0.003 -0.138)" fill="#f5efe6"/>
</svg>
