<svg xmlns="http://www.w3.org/2000/svg" width="70.46" height="29.139" viewBox="0 0 70.46 29.139">
  <g id="disney" transform="translate(0)" opacity="0.31">
    <path id="Path_15612" data-name="Path 15612" d="M38.28,60.863a2.137,2.137,0,0,1,1.3.52,1.776,1.776,0,0,1,.39,1.872,7.633,7.633,0,0,1-4.549,3.535,5.133,5.133,0,0,1-2.807-.1c-.39.234-.719.99-1.2.676-.69-.539-.093-1.381-.491-1.979-.082-.123-.289-.132-.393-.334-.546-1.2.13-2.339.883-3.249,1.256-1.4,4.861-2.963,6.862-.936ZM34.1,61.8a3.45,3.45,0,0,0-1.923.936c-.429.5-.7.988-.442,1.508.91-.676,1.352-1.611,2.365-2.183C34.1,61.954,34.251,61.876,34.1,61.8Zm4.237.26c-1.794-.156-3.145,1.2-4.419,2.495-.078.208-.546.442-.182.676a5.9,5.9,0,0,0,4.6-1.482,1.151,1.151,0,0,0,.442-1.248A.919.919,0,0,0,38.332,62.058ZM53.875,69.8c.832,2.028,1.534,5.224,0,7.174-.416.468-1.143.9-1.611.546-1.716-1.377-2.443-3.353-3.509-5.121-.156-.078-.156.13-.234.208-.39,1.793.338,4.133-.884,5.536a.936.936,0,0,1-1.066-.624c-.6-1.845.025-3.769.181-5.614a6.237,6.237,0,0,1,1.326-2.729c1.3.52,1.923,1.976,2.676,3.041a26.607,26.607,0,0,0,1.611,2.443c.546-.234.277-.947.26-1.378a33.885,33.885,0,0,0-1.118-4.86c-.025-.416-.259-1.118.182-1.378C52.862,67.569,53.355,68.79,53.875,69.8Zm-7.849-.624a1.08,1.08,0,0,1-.572.936c-2.495.39-5.276.156-7.615.935-.078.286.26.338.442.416,2,.312,4.107.39,6.056.884,1.031.262,1.4,1.482,1.482,2.5a2.655,2.655,0,0,1-1.04,2.313,7.049,7.049,0,0,1-6.81.052,2.633,2.633,0,0,1-1.508-1.923,1.554,1.554,0,0,1,.754-1.43,6.862,6.862,0,0,1,5.8.624c.1.52-.459.492-.729.676-1.794,1.04-3.145-1.169-4.808-.364-.234.156-.4.591-.13.728,2.053.91,4.341.26,6.368-.312.234-.078.52-.312.546-.546-.078-.832-1.013-1.013-1.611-1.247a39.055,39.055,0,0,0-5.614-.624,1.371,1.371,0,0,1-.935-.624,2.114,2.114,0,0,1,.26-2c2.417-2.132,6.082-1.949,9.149-1.378.208.076.442.154.52.388Zm-11.358.988a63.448,63.448,0,0,1,.312,7.434c-.052.337-.442.416-.7.546a1.3,1.3,0,0,1-1.118-.234c-.6-.962-.39-2.261-.442-3.431a23.088,23.088,0,0,1,.572-5.562c.1-.249.39-.468.624-.312A1.611,1.611,0,0,1,34.667,70.167ZM63.545,69.8c.125.21.256.535,0,.676-1.17.52-2.755.286-4.107.442a1.362,1.362,0,0,0-.52,1.3c.131.078.247.2.391.182.831.052,2.079-.39,2.626.39.133.232-.018,1.1-.39,1.118-1.014.131-2.682-.127-3.172.131-.624.416-.572,1.221-.806,1.872.442.286.9-.007,1.429-.078a8.334,8.334,0,0,1,2.989-.234c.182.338.442.7.26,1.118-1.639,1.3-3.752,2.632-6,1.689a2.4,2.4,0,0,1-.935-2.754c.182-.78.987-1.534.494-2.365a.618.618,0,0,1,.442-.754c.858,0,.675-1.066,1.117-1.56-.494-.546-1.741-.52-1.611-1.611a6.331,6.331,0,0,1,2-.312,15.741,15.741,0,0,1,4.81-.312C62.869,68.8,63.285,69.414,63.545,69.8ZM26.428,63.878c2.4,1.961,5.51,5.3,5.121,9.149-.468,3.041-3.691,5.328-6.42,6.056a18.164,18.164,0,0,1-8.682.078c-.182.494-.364,1.091-.935,1.3a1.22,1.22,0,0,1-1.118-.182c-.806-.754-.156-2.209-1.326-2.677a12.018,12.018,0,0,1-5.926-5.2,1.4,1.4,0,0,1,.312-1.3,14.233,14.233,0,0,1,6.316-2.443c.13.052.078-.13.182-.182a18.485,18.485,0,0,1,.676-4.549.406.406,0,0,1,.572-.13c1.43,1.091.754,3.145,1.378,4.626,2.729.13,5.458.26,7.616,1.794a2.366,2.366,0,0,1,.676,2.391,1.988,1.988,0,0,1-1.689,1.169c-.468,0-1.352.046-1.3-.311s1.59-.942,1.118-1.43c-.679-.7-4.076-1.118-6.182-1.378-.26-.052-.5.026-.5.312a31.329,31.329,0,0,0,.13,6.056.466.466,0,0,0,.312.311c3.717.6,7.642.26,10.553-1.871a4.458,4.458,0,0,0,1.559-4.315c-1.17-4.7-6.082-7.538-10.111-9.357A28.432,28.432,0,0,0,5.842,59.433c-.741.054-1.915.31-1.923.572s1.33.18,1.169.676-1.52.2-1.923.078-.364-.7-.26-1.066c1.014-1.793,3.843-1.938,5.121-2a28.845,28.845,0,0,1,18.4,6.186ZM13.691,70.843a16.144,16.144,0,0,0-5.354.832c-.338.13-.754.494-.494.936a8.606,8.606,0,0,0,2.547,2.183,9.8,9.8,0,0,0,3.2,1.352,30.167,30.167,0,0,0,.234-5.095C13.717,71,13.821,70.9,13.691,70.843Zm53.725-2.365c-.078,2.261-2.184,3.665-2.184,5.926.078.078.131.182.234.131,1.69-1.846,3.353-4.471,5.823-5.251a1.769,1.769,0,0,1,1.482.936,5.679,5.679,0,0,1-.545,5.692A6.906,6.906,0,0,1,66.4,78.719a33.336,33.336,0,0,0-2.106,7.85c-.208.546-.7.052-1.013-.052-2.105-1.663-.377-6.067-.234-6.629s.706-1.882,1.118-2.989c-.988-1.767-.364-3.9.441-5.536a11.04,11.04,0,0,1,2.5-3.015.35.35,0,0,1,.311.13ZM71.6,71.285c-.312-.052-.442.364-.7.442a14.489,14.489,0,0,0-2.989,4.315,4.428,4.428,0,0,0,2.184-.7,3.8,3.8,0,0,0,1.871-3.431c-.052-.235-.26-.417-.364-.624Z" transform="translate(-2.835 -57.683)" fill="#f5efe6"/>
  </g>
</svg>
