<svg xmlns="http://www.w3.org/2000/svg" width="86.724" height="23.438" viewBox="0 0 86.724 23.438">
  <path id="Netflix_2015_logo" d="M11.925,21.927c-1.3.229-2.632.3-4.005.481L3.731,10.14V22.934c-1.3.137-2.495.32-3.731.5V0H3.479L8.24,13.3V0h3.685V21.927Zm7.21-13.344c1.419,0,3.594-.069,4.9-.069v3.662c-1.625,0-3.525,0-4.9.069v5.448c2.152-.137,4.3-.321,6.477-.389v3.525l-10.14.8V0h10.14V3.662H19.135V8.583Zm20.1-4.921h-3.8V20.508c-1.236,0-2.472,0-3.662.046V3.662h-3.8V0H39.231V3.662Zm5.951,4.669h5.013v3.662H45.182V20.3H41.588V0H51.819V3.662H45.182V8.331ZM57.77,17.1c2.083.046,4.188.206,6.226.32v3.616c-3.273-.206-6.546-.412-9.888-.481V0H57.77Zm9.316,4.189c1.167.069,2.4.137,3.593.275V0H67.086ZM86.724,0,82.078,11.147l4.646,12.291c-1.373-.183-2.747-.435-4.12-.664L79.972,16l-2.678,6.226c-1.328-.229-2.61-.3-3.937-.481l4.715-10.735L73.815,0h3.937l2.4,6.157L82.719,0h4.006Z" transform="translate(0)" fill="#f5efe6" opacity="0.31"/>
</svg>
